<svg width="25" height="25" viewBox="0 0 25 25" fill="none" xmlns="http://www.w3.org/2000/svg">
<circle cx="12.5" cy="12.5" r="12.5" fill="url(#paint0_linear_400_2631)"/>
<path d="M16.3984 15.8125V17H8.95312V15.9609L12.6797 11.8125C13.138 11.3021 13.4922 10.8698 13.7422 10.5156C13.9974 10.1562 14.1745 9.83594 14.2734 9.55469C14.3776 9.26823 14.4297 8.97656 14.4297 8.67969C14.4297 8.30469 14.3516 7.96615 14.1953 7.66406C14.0443 7.35677 13.8203 7.11198 13.5234 6.92969C13.2266 6.7474 12.8672 6.65625 12.4453 6.65625C11.9401 6.65625 11.5182 6.75521 11.1797 6.95312C10.8464 7.14583 10.5964 7.41667 10.4297 7.76562C10.263 8.11458 10.1797 8.51562 10.1797 8.96875H8.73438C8.73438 8.32812 8.875 7.74219 9.15625 7.21094C9.4375 6.67969 9.85417 6.25781 10.4062 5.94531C10.9583 5.6276 11.638 5.46875 12.4453 5.46875C13.1641 5.46875 13.7786 5.59635 14.2891 5.85156C14.7995 6.10156 15.1901 6.45573 15.4609 6.91406C15.737 7.36719 15.875 7.89844 15.875 8.50781C15.875 8.84115 15.8177 9.17969 15.7031 9.52344C15.5938 9.86198 15.4401 10.2005 15.2422 10.5391C15.0495 10.8776 14.8229 11.2109 14.5625 11.5391C14.3073 11.8672 14.0339 12.1901 13.7422 12.5078L10.6953 15.8125H16.3984Z" fill="white"/>
<defs>
<linearGradient id="paint0_linear_400_2631" x1="12.5" y1="0" x2="12.5" y2="25" gradientUnits="userSpaceOnUse">
<stop stop-color="#FF7E00"/>
<stop offset="1" stop-color="#EFA35A"/>
</linearGradient>
</defs>
</svg>
