<svg width="25" height="25" viewBox="0 0 25 25" fill="none" xmlns="http://www.w3.org/2000/svg">
<circle cx="12.5" cy="12.5" r="12.5" fill="url(#paint0_linear_400_2649)"/>
<path d="M12.0547 10.6016H13.0859C13.5911 10.6016 14.0078 10.5182 14.3359 10.3516C14.6693 10.1797 14.9167 9.94792 15.0781 9.65625C15.2448 9.35938 15.3281 9.02604 15.3281 8.65625C15.3281 8.21875 15.2552 7.85156 15.1094 7.55469C14.9635 7.25781 14.7448 7.03385 14.4531 6.88281C14.1615 6.73177 13.7917 6.65625 13.3438 6.65625C12.9375 6.65625 12.5781 6.73698 12.2656 6.89844C11.9583 7.05469 11.7161 7.27865 11.5391 7.57031C11.3672 7.86198 11.2812 8.20573 11.2812 8.60156H9.83594C9.83594 8.02344 9.98177 7.4974 10.2734 7.02344C10.5651 6.54948 10.974 6.17188 11.5 5.89062C12.0312 5.60938 12.6458 5.46875 13.3438 5.46875C14.0312 5.46875 14.6328 5.59115 15.1484 5.83594C15.6641 6.07552 16.0651 6.4349 16.3516 6.91406C16.638 7.38802 16.7812 7.97917 16.7812 8.6875C16.7812 8.97396 16.7135 9.28125 16.5781 9.60938C16.4479 9.93229 16.2422 10.2344 15.9609 10.5156C15.6849 10.7969 15.3255 11.0286 14.8828 11.2109C14.4401 11.388 13.9089 11.4766 13.2891 11.4766H12.0547V10.6016ZM12.0547 11.7891V10.9219H13.2891C14.013 10.9219 14.612 11.0078 15.0859 11.1797C15.5599 11.3516 15.9323 11.5807 16.2031 11.8672C16.4792 12.1536 16.6719 12.4688 16.7812 12.8125C16.8958 13.151 16.9531 13.4896 16.9531 13.8281C16.9531 14.3594 16.862 14.8307 16.6797 15.2422C16.5026 15.6536 16.25 16.0026 15.9219 16.2891C15.599 16.5755 15.2188 16.7917 14.7812 16.9375C14.3438 17.0833 13.8672 17.1562 13.3516 17.1562C12.8568 17.1562 12.3906 17.0859 11.9531 16.9453C11.5208 16.8047 11.138 16.6016 10.8047 16.3359C10.4714 16.0651 10.2109 15.7344 10.0234 15.3438C9.83594 14.9479 9.74219 14.4974 9.74219 13.9922H11.1875C11.1875 14.388 11.2734 14.7344 11.4453 15.0312C11.6224 15.3281 11.8724 15.5599 12.1953 15.7266C12.5234 15.888 12.9089 15.9688 13.3516 15.9688C13.7943 15.9688 14.1745 15.8932 14.4922 15.7422C14.8151 15.5859 15.0625 15.3516 15.2344 15.0391C15.4115 14.7266 15.5 14.3333 15.5 13.8594C15.5 13.3854 15.401 12.9974 15.2031 12.6953C15.0052 12.388 14.724 12.1615 14.3594 12.0156C14 11.8646 13.5755 11.7891 13.0859 11.7891H12.0547Z" fill="white"/>
<defs>
<linearGradient id="paint0_linear_400_2649" x1="12.5" y1="0" x2="12.5" y2="25" gradientUnits="userSpaceOnUse">
<stop stop-color="#FF7E00"/>
<stop offset="1" stop-color="#EFA35A"/>
</linearGradient>
</defs>
</svg>
