<svg width="20" height="20" viewBox="0 0 20 20" fill="none" xmlns="http://www.w3.org/2000/svg">
<path d="M14.6273 5.53337L15.3068 7.53548H12.0644V4.49276H13.1579C13.483 4.49279 13.7999 4.59331 14.0636 4.78007C14.3274 4.96684 14.5246 5.23039 14.6273 5.53337ZM15.6506 8.54972L15.6537 8.55987L15.9284 8.62681L16.0544 8.65723C16.3896 8.73959 16.6871 8.92968 16.8997 9.19727C17.1122 9.46486 17.2276 9.79457 17.2274 10.134V11.846C17.2274 12.0083 17.1758 12.1604 17.0859 12.2842C16.9011 11.7585 16.5455 11.3071 16.0738 10.9994C15.6021 10.6918 15.0406 10.545 14.4756 10.5817C13.9106 10.6183 13.3736 10.8364 12.9472 11.2023C12.5208 11.5682 12.2288 12.0617 12.116 12.6067H7.8823C7.76953 12.0617 7.47746 11.5682 7.05108 11.2023C6.62471 10.8364 6.08767 10.6183 5.5227 10.5817C4.95773 10.545 4.39615 10.6918 3.92447 10.9994C3.45279 11.3071 3.09716 11.7585 2.91236 12.2842C2.82014 12.156 2.77071 12.0029 2.77089 11.846V10.6157C2.77077 10.2803 2.8835 9.95431 3.09153 9.68834C3.29956 9.42238 3.59125 9.23139 3.92122 9.14508L6.19502 8.54972H15.6506ZM7.0335 7.53548L8.31187 5.27575C8.44585 5.03868 8.6419 4.84109 8.87973 4.70342C9.11756 4.56576 9.38853 4.49303 9.66459 4.49276H11.0318V7.53548H7.0335ZM1.73828 11.846C1.73828 12.5631 2.17198 13.1808 2.79464 13.4607C2.87733 14.0541 3.17122 14.5996 3.62422 15.0005C4.07723 15.4014 4.6601 15.6319 5.26957 15.6511C5.87904 15.6703 6.47575 15.477 6.95398 15.1054C7.43221 14.7338 7.76107 14.2079 7.8823 13.6209H12.116C12.2372 14.2079 12.5661 14.7338 13.0443 15.1054C13.5225 15.477 14.1193 15.6703 14.7287 15.6511C15.3382 15.6319 15.9211 15.4014 16.3741 15.0005C16.8271 14.5996 17.121 14.0541 17.2037 13.4607C17.5188 13.3193 17.7859 13.092 17.9732 12.8057C18.1605 12.5194 18.2601 12.1863 18.26 11.846V10.134C18.26 9.59493 18.0852 9.06991 17.7608 8.63511C17.4364 8.20032 16.9794 7.87838 16.4561 7.71602L15.6062 5.21185C15.4349 4.70735 15.1064 4.26852 14.6672 3.95746C14.228 3.6464 13.7004 3.47885 13.1589 3.47852H9.66562C9.20495 3.47824 8.7526 3.59904 8.35549 3.82839C7.95839 4.05774 7.631 4.38729 7.4073 4.78283L5.81709 7.59938L3.65584 8.16533C3.10594 8.30908 2.61981 8.62726 2.27303 9.07041C1.92625 9.51355 1.73826 10.0568 1.73828 10.6157V11.846ZM14.6459 11.5924C15.0567 11.5924 15.4507 11.7527 15.7411 12.038C16.0316 12.3234 16.1948 12.7103 16.1948 13.1138C16.1948 13.5173 16.0316 13.9043 15.7411 14.1896C15.4507 14.4749 15.0567 14.6352 14.6459 14.6352C14.2351 14.6352 13.8411 14.4749 13.5506 14.1896C13.2602 13.9043 13.097 13.5173 13.097 13.1138C13.097 12.7103 13.2602 12.3234 13.5506 12.038C13.8411 11.7527 14.2351 11.5924 14.6459 11.5924ZM5.35241 11.5924C5.76321 11.5924 6.15718 11.7527 6.44766 12.038C6.73814 12.3234 6.90133 12.7103 6.90133 13.1138C6.90133 13.5173 6.73814 13.9043 6.44766 14.1896C6.15718 14.4749 5.76321 14.6352 5.35241 14.6352C4.94161 14.6352 4.54764 14.4749 4.25716 14.1896C3.96669 13.9043 3.8035 13.5173 3.8035 13.1138C3.8035 12.7103 3.96669 12.3234 4.25716 12.038C4.54764 11.7527 4.94161 11.5924 5.35241 11.5924Z" fill="#EFA35A"/>
</svg>
