<svg width="17" height="17" viewBox="0 0 17 17" fill="none" xmlns="http://www.w3.org/2000/svg">
<path d="M2.44547 8.17885C2.35915 8.09842 2.24498 8.05463 2.12701 8.05671C2.00904 8.05879 1.89649 8.10658 1.81306 8.19001C1.72963 8.27344 1.68184 8.386 1.67976 8.50396C1.67768 8.62193 1.72147 8.7361 1.8019 8.82242L6.0519 13.0724C6.13728 13.1577 6.25302 13.2056 6.37369 13.2056C6.49436 13.2056 6.61009 13.1577 6.69547 13.0724L15.1955 4.57243C15.2759 4.4861 15.3197 4.37193 15.3176 4.25396C15.3155 4.136 15.2677 4.02344 15.1843 3.94001C15.1009 3.85658 14.9883 3.80879 14.8704 3.80671C14.7524 3.80463 14.6382 3.84842 14.5519 3.92885L6.37369 12.1071L2.44547 8.17885Z" fill="#EFA35A"/>
</svg>
