<svg width="40" height="35" viewBox="0 0 40 35" fill="none" xmlns="http://www.w3.org/2000/svg">
<g clip-path="url(#clip0_380_1514)">
<path fill-rule="evenodd" clip-rule="evenodd" d="M0.0429688 12.662L0.0492509 12.6694C0.157618 12.6097 0.251851 12.4762 0.340783 12.3894C0.54456 12.1901 0.971944 11.795 1.14451 11.6093C1.30352 11.4383 1.50357 11.2679 1.64531 11.121L1.93213 10.8303C1.96315 10.7994 1.98219 10.7896 2.01164 10.7611C2.04168 10.732 2.02067 10.7503 2.04246 10.7262C2.06897 10.697 2.04423 10.7204 2.07525 10.6932C2.14003 10.6364 2.15279 10.6122 2.21405 10.552L3.07882 9.70141C3.13615 9.65028 3.16736 9.6146 3.22057 9.56228L4.59086 8.22731C4.62365 8.19543 4.61776 8.19163 4.65447 8.15935L5.08971 7.73695C5.22654 7.59681 5.36926 7.43824 5.5218 7.31134L5.79959 7.02827C5.85476 6.97193 5.89893 6.94487 5.95507 6.88693L6.31257 6.5347C6.33043 6.51746 6.35065 6.4922 6.37716 6.46794L6.66476 6.17805C6.71738 6.12613 6.75841 6.10007 6.812 6.04493L7.95594 4.91285C7.98539 4.88378 8.0062 4.87075 8.03349 4.84128C8.1931 4.66947 8.38922 4.50288 8.5343 4.35292L9.10283 3.78377C9.15387 3.73345 9.19608 3.69717 9.24065 3.64404C9.33095 3.68293 10.6901 5.1428 10.8781 5.33786C11.1516 5.62133 11.4149 5.89899 11.6962 6.18607L12.4983 7.03408C12.6236 7.18504 12.775 7.32076 12.9122 7.46149L13.7188 8.30469C14.2699 8.86462 14.7864 9.44319 15.3361 10.0039C15.4729 10.1435 15.6096 10.2828 15.7446 10.4201C15.8214 10.4983 15.8726 10.5685 15.9486 10.6452C16.0207 10.7176 16.0804 10.7826 16.1532 10.8533C16.2936 10.9895 16.4353 11.1364 16.5541 11.2773C16.6719 11.4169 16.8246 11.5568 16.9606 11.6955C17.1022 11.8401 17.2206 11.9768 17.3609 12.1203C17.571 12.3347 18.0027 12.8098 18.1774 12.9704C18.3239 13.1053 18.4532 13.2512 18.5775 13.3954C18.6749 13.508 18.7889 13.598 18.8895 13.7099C18.926 13.7506 18.9442 13.7747 18.9833 13.8144C19.1011 13.9342 19.4668 14.3474 19.5968 14.4547C19.66 14.5068 19.8868 14.4809 19.9829 14.4809H23.264C23.6906 14.4809 24.5263 14.5048 24.9017 14.4777L25.9447 13.1472C26.0342 13.0285 26.1189 12.9301 26.2058 12.8136L26.7284 12.1472C26.8126 12.0359 26.8953 11.9435 26.9844 11.8254L31.411 6.19329C31.4638 6.12432 31.4909 6.09064 31.5431 6.0283C31.8396 5.67526 32.1617 5.24243 32.4515 4.87215C32.541 4.75788 32.6191 4.65905 32.7128 4.53876L33.1064 4.04058C33.1419 3.99547 33.1832 3.9211 33.2383 3.88521C33.3787 4.02374 33.925 4.81321 34.0742 5.00507C34.3609 5.37394 34.6163 5.75144 34.8978 6.1143C35.3242 6.6636 35.7176 7.22694 36.1344 7.78566L37.7809 10.0051C38.0014 10.307 39.8 12.6973 39.824 12.7843L39.8517 12.7747C39.7341 12.5087 39.591 12.238 39.4612 11.9732L34.3457 1.59378C34.1567 1.20726 33.7091 0.335796 33.5689 0L11.9677 2.7004L11.2252 2.01658C11.1918 1.98471 11.1596 1.96566 11.1267 1.93298L10.3059 1.17098C10.1598 1.05109 9.99667 0.875877 9.85355 0.749978L9.67412 0.582982C9.63603 0.551107 9.61188 0.532663 9.57556 0.499585L9.2165 0.166194C9.17429 0.121087 9.08143 0.0256609 9.02921 0.00902139L8.18132 1.19183C8.08885 1.31973 7.98755 1.45665 7.89999 1.58797L7.33754 2.38024C7.14378 2.64166 6.96258 2.9081 6.77568 3.17393C6.39699 3.7124 6.02418 4.22602 5.6496 4.75788C5.45957 5.02772 5.26227 5.28433 5.08617 5.54916C4.75322 6.04975 4.31661 6.60767 3.96736 7.12389C3.65031 7.5922 3.17345 8.24495 2.84207 8.70905C2.09704 9.75233 1.31275 10.8353 0.588928 11.8758C0.510794 11.988 0.0588705 12.5983 0.0429688 12.662Z" fill="#17170A"/>
<path fill-rule="evenodd" clip-rule="evenodd" d="M36.7908 23.8512C36.7156 23.6572 36.2823 22.4551 36.2335 22.3848L34.5485 22.3878L34.5445 22.4826L35.0746 22.4874C35.0911 22.6235 35.0781 25.841 35.0783 26.1465C35.0785 26.358 35.0921 26.519 34.969 26.6477C34.8047 26.8195 34.6419 26.7629 34.5441 26.8133L34.543 26.8961C34.7214 26.8995 35.6522 26.9275 35.7409 26.88L35.7393 26.8052C35.3102 26.7605 35.1838 26.6759 35.1841 26.2132L35.1832 22.7671C35.2644 22.91 35.9141 24.7045 35.994 24.9158C36.1292 25.2738 36.2602 25.6295 36.395 25.9901C36.5273 26.3438 36.6764 26.7136 36.793 27.0651L36.8933 27.0599C37.0227 26.7186 37.1399 26.3271 37.2527 25.9793C37.3694 25.6204 37.4913 25.267 37.6081 24.9084L38.3174 22.7795L38.3366 26.801C38.2235 26.804 37.8731 26.7834 37.7905 26.8131L37.7887 26.88C37.8482 26.9137 39.7837 26.9057 39.9977 26.8953L39.9871 26.8026H39.4517V22.4852L39.99 22.4826L39.9884 22.3848H38.3507C38.295 22.4778 37.9208 23.6436 37.8497 23.8549C37.7855 24.0457 37.4004 25.2702 37.3513 25.3257C37.3046 25.2658 36.8631 24.0377 36.7908 23.8512Z" fill="#17180A"/>
<path fill-rule="evenodd" clip-rule="evenodd" d="M3.05419 22.4799C3.19515 22.4729 4.02852 22.4629 4.09939 22.4905C4.16241 22.522 4.36599 23.0936 4.40761 23.1962C4.50655 23.4404 4.6002 23.6838 4.70365 23.9277C4.77413 24.0943 4.70719 24.1723 4.65222 24.3265C4.59097 24.4983 4.28138 25.4143 4.22857 25.4425L3.6351 23.9684C3.55716 23.7772 3.0485 22.5737 3.05419 22.4799ZM6.57868 25.3958L6.55081 25.4502C6.50389 25.4311 6.51253 25.4413 6.48779 25.383C6.46462 25.2216 5.34444 22.6329 5.3409 22.4807C5.46242 22.4717 5.6876 22.5064 5.77732 22.4645C5.77535 22.3638 5.79381 22.3877 5.55096 22.3887C4.94179 22.3911 1.42378 22.3634 1.28125 22.3997C1.2893 22.4889 1.28184 22.4809 1.38667 22.4803C1.82348 22.4769 1.80954 22.4248 1.89042 22.6323L2.06711 23.0689C2.14642 23.2664 2.22318 23.4532 2.29955 23.6481C2.45248 24.0368 2.60973 24.4163 2.7658 24.8056L3.58916 26.8489C3.60938 26.8986 3.62607 26.9423 3.64629 26.992C3.67201 27.0556 3.68045 27.07 3.76486 27.055C3.81532 26.9806 4.44825 25.1655 4.54071 24.9135C4.58331 24.7972 4.75352 24.2768 4.80005 24.2156C4.88839 24.2832 5.86213 26.9301 5.97442 27.059C6.09084 27.0652 6.07395 27.0135 6.14973 26.8094C6.57417 25.6677 6.98761 24.4726 7.40459 23.3213C7.48862 23.0892 7.54221 22.8903 7.68101 22.7363C7.90972 22.4827 8.17396 22.5108 8.25956 22.4649L8.25583 22.3973C8.15237 22.3735 7.14231 22.3777 7.06025 22.4001C7.07458 22.5743 7.20494 22.4071 7.3722 22.6359C7.46741 22.7662 7.46741 22.8891 7.40715 23.0563C7.31095 23.3231 7.22182 23.5677 7.12504 23.8361C7.06261 24.0093 6.56926 25.3339 6.57868 25.3958Z" fill="#EFA35A"/>
<path fill-rule="evenodd" clip-rule="evenodd" d="M23.0041 26.795L23.0045 22.4876C23.1774 22.4641 23.6647 22.4767 23.8149 22.5295C24.0182 22.601 24.1885 22.7714 24.2756 22.9441C24.4207 23.2307 24.3614 24.2361 24.3614 24.6293C24.3614 24.9237 24.3614 25.2182 24.3614 25.5127C24.3614 25.8012 24.3926 26.0707 24.2827 26.3219C24.2053 26.4985 24.0241 26.6753 23.8339 26.7473C23.6702 26.8092 23.1916 26.8257 23.0041 26.795ZM22.9352 22.3843C22.7339 22.3845 21.4135 22.3665 21.3348 22.3952L21.3328 22.4621C21.4314 22.5247 21.7431 22.4707 21.8868 22.4872L21.8866 26.7948C21.7486 26.8166 21.4369 26.7753 21.334 26.8128L21.332 26.8798C21.4062 26.9217 22.7522 26.8956 22.9515 26.8962C23.4691 26.8978 23.9503 26.9345 24.3973 26.722C24.4939 26.6761 24.5799 26.6292 24.6622 26.5759C24.7289 26.5326 24.8555 26.4391 24.895 26.3968L25.0894 26.1791C25.4011 25.7746 25.5894 25.193 25.5839 24.6293C25.578 24.0078 25.2978 23.2337 24.873 22.8675C24.2725 22.35 23.7208 22.3829 22.9352 22.3843Z" fill="#17180A"/>
<path fill-rule="evenodd" clip-rule="evenodd" d="M30.1052 22.4042C30.5465 22.3438 30.9056 22.6786 30.9877 23.0262C31.0577 23.3236 31.0177 24.173 31.0177 24.529C31.0177 24.8367 31.0322 25.8463 31.0134 26.0735C30.9292 27.0871 29.6146 27.1466 29.3963 26.2529C29.3345 25.9995 29.3733 25.0687 29.3733 24.7457C29.3733 24.2373 29.357 23.7004 29.3741 23.1954C29.3778 23.0876 29.4042 22.9767 29.4422 22.8865C29.5047 22.7394 29.6711 22.5662 29.8086 22.4932C29.9002 22.4445 29.9858 22.4204 30.1052 22.4042ZM32.2621 24.7457C32.2877 24.4661 32.2154 24.0471 32.133 23.7903C31.9879 23.3392 31.8053 23.0441 31.4914 22.7622C30.7297 22.078 29.3831 22.171 28.7329 22.9124C28.7023 22.9473 28.6896 22.9535 28.6623 22.9898C28.6411 23.0184 28.6342 23.0299 28.6065 23.0659C27.9426 23.9274 27.9722 25.349 28.6189 26.2292C29.3201 27.1837 30.8834 27.2358 31.6571 26.3648C31.7423 26.2691 31.8228 26.1659 31.8941 26.0406C32.1601 25.5739 32.2123 25.289 32.2621 24.7457Z" fill="#17180A"/>
<path fill-rule="evenodd" clip-rule="evenodd" d="M9.38642 9.79885C9.34401 9.9027 9.37287 10.8963 9.37287 11.0927C9.37287 11.5262 9.3605 11.9788 9.37287 12.4096L12.1461 12.4116L12.1437 9.44141L12.0546 9.45063C11.9515 9.44281 10.8857 9.59196 10.7033 9.62023C10.4827 9.65451 10.2571 9.67857 10.0374 9.70724C9.8509 9.73169 9.55564 9.75455 9.38642 9.79885Z" fill="#17170A"/>
<path fill-rule="evenodd" clip-rule="evenodd" d="M9.37796 15.4255L12.1474 15.6947L12.1445 12.8271H9.37109L9.37796 15.4255Z" fill="#17180A"/>
<path fill-rule="evenodd" clip-rule="evenodd" d="M5.98284 15.0946L8.86282 15.3823L8.86891 12.8232L5.97656 12.8281L5.98284 15.0946Z" fill="#17180A"/>
<path fill-rule="evenodd" clip-rule="evenodd" d="M5.96956 12.4213L8.87565 12.4159L8.86995 9.86426L5.96484 10.2536L5.96956 12.4213Z" fill="#17180A"/>
<path fill-rule="evenodd" clip-rule="evenodd" d="M17.6001 22.4126C17.6001 22.5018 17.6125 22.4816 17.7032 22.4914C18.1895 22.5441 18.1365 22.9326 18.1365 23.2961C18.1365 23.7387 18.164 24.2806 18.1357 24.7106C18.077 24.684 17.6577 23.9661 17.5893 23.8546C17.4134 23.5671 17.2411 23.2863 17.0624 22.9926C16.6252 22.2729 16.7962 22.3881 16.2595 22.3881C16.0547 22.3881 14.9993 22.3643 14.9023 22.4058C14.9096 22.4872 14.9049 22.4799 15.0007 22.4807C15.0898 22.4816 15.4022 22.4605 15.432 22.496C15.4618 22.5315 15.4434 25.7064 15.4424 26.197C15.4408 27.0013 14.8902 26.6516 14.9059 26.8802C14.9756 26.9113 15.9772 26.9105 16.0506 26.8854C16.0695 26.8411 16.0659 26.8776 16.0598 26.8134C15.8366 26.7172 15.5311 26.8694 15.5341 26.1799L15.5337 22.684C15.6003 22.7089 15.5596 22.6722 15.6067 22.7474L18.0063 26.6799C18.0943 26.8271 18.1157 26.9052 18.2095 26.8904C18.2193 26.8706 18.2156 26.8872 18.2229 26.8463L18.2254 26.7302C18.2111 25.5494 18.2248 24.2993 18.2233 23.1124C18.2231 22.9158 18.2388 22.7382 18.3552 22.6189C18.4137 22.5589 18.4677 22.5311 18.5554 22.5078C18.7588 22.4537 18.7537 22.5349 18.7631 22.4026C18.7034 22.3803 17.6647 22.3613 17.6001 22.4126Z" fill="#EFA35A"/>
<path fill-rule="evenodd" clip-rule="evenodd" d="M12.4235 22.4782C12.5009 22.478 12.6108 22.4906 12.6662 22.4648C12.664 22.3637 12.655 22.386 12.5388 22.388C11.9117 22.3994 11.0275 22.3603 10.4558 22.4004C10.4649 22.5026 10.4806 22.4818 10.5946 22.4792C11.0544 22.468 11.002 22.4403 11.0014 22.6454C10.9975 24.0257 11.0128 25.4248 10.9994 26.8004L10.7911 26.8028C10.6794 26.8034 10.4344 26.7764 10.4543 26.8578C10.4678 26.9131 10.562 26.8953 10.6278 26.8953C11.2001 26.8949 12.1769 26.9191 12.6544 26.8844C12.674 26.8417 12.6715 26.8814 12.664 26.8155C12.5441 26.7746 12.2686 26.8221 12.1128 26.7968L12.1124 22.8122C12.1124 22.7518 12.0886 22.504 12.1393 22.489C12.1424 22.4882 12.1479 22.4856 12.1518 22.4846L12.1944 22.4774C12.2133 22.4758 12.2555 22.4772 12.2763 22.4774C12.3254 22.478 12.3744 22.4782 12.4235 22.4782Z" fill="#EFA359"/>
<path fill-rule="evenodd" clip-rule="evenodd" d="M32.9411 14.6633L32.9436 12.6621L30.5625 12.6653V15.0179L32.9411 14.6633Z" fill="#17170A"/>
<path fill-rule="evenodd" clip-rule="evenodd" d="M30.5592 12.2716L32.9423 12.2778C32.934 11.9635 32.9768 10.4426 32.9262 10.2825L30.5586 9.93945L30.5592 12.2716Z" fill="#17170A"/>
<path fill-rule="evenodd" clip-rule="evenodd" d="M35.5512 14.28L35.5541 12.6611L33.3359 12.6641L33.3399 14.6069L35.5512 14.28Z" fill="#17170A"/>
<path fill-rule="evenodd" clip-rule="evenodd" d="M33.3365 12.2714L35.5565 12.2776C35.5496 12.0202 35.5846 10.7897 35.5449 10.6604L33.3359 10.3398L33.3365 12.2714Z" fill="#17170A"/>
<path fill-rule="evenodd" clip-rule="evenodd" d="M8.59583 34.4341C8.56481 34.5127 8.55107 34.4486 8.55068 34.448C8.5067 34.3245 8.21399 33.5599 8.16472 33.5047L7.99039 33.5041C7.97154 33.5919 7.97193 34.6248 7.99176 34.708L8.11073 34.7034L8.11191 33.7307C8.1924 33.8213 8.45703 34.6266 8.53576 34.7106C8.62174 34.7084 8.60486 34.7046 8.63372 34.626L8.79156 34.2371C8.86007 34.0635 8.92957 33.8971 8.99337 33.7279C8.99592 33.7317 8.99828 33.7371 8.99926 33.7403C9.00044 33.7435 9.00338 33.7491 9.00456 33.7531C9.03185 33.8463 8.99553 34.544 9.01929 34.7088L9.14552 34.7066L9.13845 33.5029L8.95804 33.5071C8.91151 33.5667 8.59661 34.369 8.59583 34.4341Z" fill="#19190E"/>
<path fill-rule="evenodd" clip-rule="evenodd" d="M25.2177 33.6266L25.6844 33.6262L25.6848 34.5853L25.0652 34.5875C25.1147 34.4297 25.1732 34.3646 25.1963 34.1605C25.2173 33.9765 25.2152 33.8115 25.2177 33.6266ZM24.915 34.7092L25.8257 34.7136L25.8263 35.0001L25.9521 34.9907L25.9463 34.5905L25.8145 34.5803L25.8057 33.5029L25.0968 33.5049C25.0601 33.6675 25.0991 33.962 25.0616 34.1669C25.0438 34.2655 25.0208 34.3505 24.9825 34.4357C24.8267 34.7834 24.7456 34.3273 24.789 34.9945L24.9124 34.9967L24.915 34.7092Z" fill="#191710"/>
<path fill-rule="evenodd" clip-rule="evenodd" d="M4.65002 33.6265L5.11686 33.6259L5.11706 34.5849L4.50062 34.5873C4.54833 34.4338 4.60997 34.367 4.63255 34.1611C4.65296 33.9731 4.64688 33.8155 4.65002 33.6265ZM5.25605 34.5894C5.24231 34.5589 5.2537 34.6242 5.2427 34.5483L5.24074 33.5126C5.05247 33.5178 4.68438 33.4915 4.52241 33.5256C4.50494 33.749 4.53949 33.9581 4.49434 34.1862C4.47549 34.2818 4.45233 34.3754 4.41346 34.451C4.40403 34.4695 4.35868 34.5462 4.35083 34.5543C4.2937 34.614 4.31 34.5691 4.22656 34.5976L4.2301 34.9975L4.34475 34.9963L4.34671 34.7088L5.25782 34.7134L5.2586 34.9997L5.38444 34.9903L5.37855 34.5888L5.25605 34.5894Z" fill="#19190E"/>
<path fill-rule="evenodd" clip-rule="evenodd" d="M12.7882 33.6341L13.2552 33.6247L13.2558 34.583L12.6366 34.5868C12.6882 34.4348 12.7404 34.3616 12.7646 34.1642C12.7878 33.9731 12.7813 33.8246 12.7882 33.6341ZM12.649 33.9601C12.6505 34.0948 12.6256 34.243 12.584 34.3604C12.4846 34.6409 12.4448 34.5665 12.3555 34.5974L12.3578 34.9985L12.4843 34.9917L12.4844 34.7087L13.3926 34.7089L13.3946 34.9937L13.5194 34.9959L13.5104 34.5874L13.3883 34.5826L13.3863 33.5206L12.6704 33.5156C12.6711 33.5916 12.6894 33.9282 12.649 33.9601Z" fill="#16190D"/>
<path fill-rule="evenodd" clip-rule="evenodd" d="M34.4396 33.5095C34.4131 33.6845 34.4339 34.0523 34.4339 34.248C34.4335 34.6502 34.3862 34.7221 34.5246 34.7121C34.6004 34.7067 34.5953 34.6923 34.6294 34.6369C34.682 34.5515 35.1554 33.7785 35.2166 33.7302C35.2254 33.912 35.2174 34.1139 35.2174 34.2981C35.2176 34.7548 35.1795 34.7137 35.3377 34.7079C35.3566 34.6247 35.3568 33.5832 35.3377 33.5044C35.1402 33.4986 35.1852 33.5345 35.087 33.6869C35.0305 33.7747 34.9724 33.8619 34.9174 33.9467C34.855 34.0431 34.6365 34.418 34.5725 34.4661C34.5605 34.2897 34.5699 34.0784 34.5699 33.898C34.5703 33.4738 34.607 33.4784 34.4396 33.5095Z" fill="#191710"/>
<path fill-rule="evenodd" clip-rule="evenodd" d="M20.1012 34.1813C20.0364 33.4555 20.9644 33.3976 21.0412 34.0323C21.0771 34.3308 20.8953 34.5774 20.6483 34.6121C20.3511 34.654 20.125 34.4465 20.1012 34.1813ZM19.961 34.2145C20.0688 34.9777 21.2713 34.8949 21.1808 34.0183C21.1462 33.6833 20.8527 33.4247 20.4717 33.4802C20.1497 33.5273 19.9055 33.8208 19.961 34.2145Z" fill="#151710"/>
<path fill-rule="evenodd" clip-rule="evenodd" d="M6.16566 34.1815C6.08949 33.4612 7.04339 33.396 7.10582 34.0313C7.1765 34.7504 6.2328 34.816 6.16566 34.1815ZM6.02804 34.2147C6.13425 34.9818 7.331 34.9018 7.2456 34.0167C7.16884 33.2236 5.90436 33.3216 6.02804 34.2147Z" fill="#151710"/>
<path fill-rule="evenodd" clip-rule="evenodd" d="M26.6518 34.7047C26.8351 34.7274 26.8183 34.6647 26.9052 34.5337C26.9861 34.4119 27.3815 33.7597 27.4243 33.735L27.431 34.7094L27.5568 34.7072L27.5486 33.5065C27.4657 33.4989 27.4259 33.4893 27.3815 33.5524C27.2735 33.7058 26.8332 34.4475 26.7741 34.4788L26.7656 33.5057C26.5982 33.4929 26.6471 33.5388 26.6479 33.7148C26.649 33.958 26.6339 34.5361 26.6518 34.7047Z" fill="#15160E"/>
<path fill-rule="evenodd" clip-rule="evenodd" d="M16.5011 33.6309C16.5221 33.665 16.5087 33.5998 16.5189 33.681L16.5058 34.0818C16.4288 34.1018 16.3156 34.097 16.2537 34.0666C16.0867 34.0633 15.9534 33.9028 16.0507 33.7334C16.124 33.6061 16.3491 33.6139 16.5011 33.6309ZM16.642 33.5084C16.5631 33.4958 16.305 33.4986 16.2213 33.5086C16.0841 33.5249 15.9961 33.576 15.9404 33.6544C15.8803 33.7388 15.8703 33.8929 15.9174 33.9992C15.9691 34.1157 16.0387 34.1319 16.1603 34.1804C16.1226 34.3216 15.8864 34.5894 15.8711 34.7097C16.0603 34.7131 16.002 34.7319 16.1738 34.4428C16.3452 34.1546 16.2724 34.1917 16.5109 34.1931C16.5121 34.2568 16.5046 34.6529 16.5131 34.6778C16.5282 34.7221 16.6342 34.742 16.6479 34.6648C16.664 34.575 16.6479 33.5517 16.642 33.5084Z" fill="#161911"/>
<path fill-rule="evenodd" clip-rule="evenodd" d="M31.4569 33.988C31.4535 34.1321 31.4433 34.2745 31.4035 34.4092C31.3462 34.6027 31.2914 34.575 31.1174 34.596L31.1055 34.7089C31.6609 34.8162 31.5778 34.0604 31.5933 33.6273L32.0413 33.6336C32.0445 33.8561 32.0125 34.5429 32.0511 34.7083H32.1795L32.1789 33.5221L31.4751 33.5137L31.4753 33.8649C31.4753 33.8787 31.4765 33.9216 31.4751 33.9325L31.4569 33.988Z" fill="#191710"/>
<path fill-rule="evenodd" clip-rule="evenodd" d="M22.0424 34.1457C22.2613 34.1238 22.5809 34.1198 22.5672 34.3806C22.5546 34.621 22.2536 34.6023 22.0412 34.5961L22.0424 34.1457ZM22.3755 34.6897C22.6162 34.7078 22.7805 34.44 22.6696 34.2058C22.5681 33.9915 22.2854 34.0362 22.0408 34.0172L22.0438 33.6294C22.1441 33.6166 22.2935 33.6254 22.3997 33.6254C22.5285 33.6256 22.6734 33.6703 22.6125 33.514C22.5336 33.4789 22.0436 33.4939 21.9272 33.5059L21.9258 34.6942C22.0732 34.7026 22.2336 34.6968 22.3755 34.6897Z" fill="#151710"/>
<path fill-rule="evenodd" clip-rule="evenodd" d="M10.1186 34.2713C10.1335 34.1913 10.3253 33.7156 10.3676 33.6855L10.598 34.2691L10.1186 34.2713ZM9.80078 34.7068C9.95842 34.7186 9.93349 34.7172 9.98434 34.5911C10.0902 34.3283 9.97806 34.39 10.6573 34.3994C10.698 34.4973 10.7354 34.6366 10.793 34.7086L10.917 34.708C10.9137 34.6436 10.4626 33.5651 10.4151 33.5039L10.3065 33.5041C10.2594 33.5793 9.80628 34.6464 9.80078 34.7068Z" fill="#151710"/>
<path fill-rule="evenodd" clip-rule="evenodd" d="M15.0196 33.6282C15.0215 33.632 15.0253 33.633 15.0259 33.6395L15.0365 33.6803C15.0488 33.8074 15.0229 34.4806 15.0378 34.6962L15.1503 34.6958L15.1505 33.5131C14.9738 33.5127 14.602 33.4937 14.4471 33.5238C14.433 33.7501 14.4599 33.9827 14.4287 34.2106C14.3931 34.4694 14.3668 34.5937 14.103 34.5907L14.0938 34.7098C14.645 34.7988 14.5675 34.0797 14.5749 33.6258L15.0196 33.6282Z" fill="#19190E"/>
<path fill-rule="evenodd" clip-rule="evenodd" d="M29.9203 34.5811L29.9204 34.143L30.4815 34.1412L30.4756 34.0203L29.9197 34.0205L29.9204 33.6268C30.0471 33.6252 30.1741 33.6262 30.3007 33.6262C30.4303 33.6262 30.574 33.6713 30.5135 33.5143C30.4397 33.4816 29.933 33.4993 29.8109 33.5051C29.7624 33.5981 29.7866 34.5235 29.7926 34.6979L30.5302 34.6985L30.5294 34.5991C30.4262 34.5967 30.3225 34.5983 30.219 34.5983C30.0901 34.5985 29.9762 34.6135 29.9203 34.5811Z" fill="#19190E"/>
<path fill-rule="evenodd" clip-rule="evenodd" d="M33.7214 34.6812L33.7169 34.587L33.1016 34.5878L33.1034 34.1419L33.6615 34.1411L33.6558 34.0194L33.1016 34.021L33.1048 33.6265C33.2381 33.6229 33.6058 33.6515 33.7033 33.6151L33.7051 33.5307C33.6203 33.4884 33.1036 33.5072 32.9766 33.514L32.977 34.6962C33.1116 34.7 33.6313 34.7239 33.7214 34.6812Z" fill="#19190E"/>
<path fill-rule="evenodd" clip-rule="evenodd" d="M18.3516 34.7047C18.5055 34.7306 18.4772 34.6957 18.4754 34.5485L18.4774 33.6259L19.1003 33.6289L19.1064 34.7097L19.2148 34.7051L19.2144 33.5137L18.352 33.5165L18.3516 34.7047Z" fill="#151710"/>
<path fill-rule="evenodd" clip-rule="evenodd" d="M23.5742 34.5773L23.5744 34.1426L24.1451 34.141L24.1392 34.0202L23.5729 34.0175L23.5758 33.6262L24.1785 33.625L24.1716 33.5029L23.4588 33.5063L23.457 34.695L24.1917 34.6966L24.1932 34.6005L23.7193 34.5993C23.5996 34.5987 23.6084 34.6108 23.5742 34.5773Z" fill="#19190E"/>
<path fill-rule="evenodd" clip-rule="evenodd" d="M28.6057 33.6264L28.6094 34.7068L28.7282 34.7072L28.7333 33.6262L29.1206 33.6242L29.1157 33.5035H28.3061C28.2566 33.5035 28.2395 33.4899 28.2179 33.5256C28.205 33.5472 28.2119 33.6016 28.2236 33.6136C28.2488 33.6395 28.5468 33.6262 28.6057 33.6264Z" fill="#191710"/>
<path fill-rule="evenodd" clip-rule="evenodd" d="M9.37764 15.426L9.37077 12.8277H12.1441L12.1471 15.6953C12.1759 15.6454 12.1624 15.403 12.1624 15.344C12.1624 14.9878 12.1785 12.948 12.1549 12.8173C12.0391 12.7958 9.46696 12.797 9.36134 12.8185C9.337 12.9343 9.35251 14.809 9.3527 15.1273C9.3527 15.2292 9.33366 15.401 9.37764 15.426Z" fill="#655A43"/>
<path fill-rule="evenodd" clip-rule="evenodd" d="M5.98339 15.0944L5.9771 12.8278L8.86945 12.823L8.86337 15.3821C8.89419 15.3345 8.88476 15.292 8.88398 15.2275C8.87986 14.8344 8.90086 12.9553 8.87652 12.8176C8.77031 12.7937 6.09175 12.7937 5.96905 12.8186C5.93627 12.9753 5.96513 14.5387 5.95983 14.9779C5.95806 15.1204 5.96474 15.0817 5.98339 15.0944Z" fill="#655A43"/>
<path fill-rule="evenodd" clip-rule="evenodd" d="M9.38871 9.79887C9.35259 9.81972 9.36771 9.77201 9.35495 9.85801C9.35397 9.86363 9.35573 9.93099 9.35573 9.94241C9.36064 10.3526 9.33905 12.2784 9.36339 12.4265L12.1574 12.4195C12.1817 12.2914 12.1804 9.55369 12.1558 9.4328C12.1024 9.42418 12.0916 9.42078 12.0569 9.45065L12.146 9.44142L12.1484 12.4117L9.37517 12.4097C9.3628 11.9788 9.37517 11.5262 9.37517 11.0927C9.37517 10.8963 9.34631 9.90272 9.38871 9.79887Z" fill="#61533D"/>
<path fill-rule="evenodd" clip-rule="evenodd" d="M32.9411 14.6632C32.9644 14.6347 32.9495 14.6978 32.9627 14.6116L32.9621 14.411C32.9625 14.0615 32.9813 12.7997 32.9548 12.651C32.8192 12.6261 31.0635 12.6474 30.6921 12.6428C30.6383 12.6422 30.5863 12.6291 30.5625 12.6652L32.9436 12.662L32.9411 14.6632Z" fill="#665A3D"/>
<path fill-rule="evenodd" clip-rule="evenodd" d="M35.5512 14.28C35.5751 14.2509 35.5643 14.2854 35.5732 14.2276L35.5724 14.0771C35.5722 13.7882 35.5889 12.7824 35.5651 12.6505C35.4481 12.6286 34.109 12.6423 33.8738 12.6423C33.8165 12.6423 33.3672 12.6176 33.3359 12.6641L35.5541 12.6611L35.5512 14.28Z" fill="#655A43"/>
<path fill-rule="evenodd" clip-rule="evenodd" d="M30.5625 12.2713C30.599 12.3082 30.5861 12.2938 30.7093 12.2926C31.0719 12.289 32.8298 12.3088 32.9552 12.286C32.9823 12.1414 32.9619 11.0591 32.9619 10.7594C32.9619 10.6483 32.9866 10.3019 32.9295 10.2822C32.9802 10.4424 32.9374 11.9632 32.9456 12.2776L30.5625 12.2713Z" fill="#61533D"/>
<path fill-rule="evenodd" clip-rule="evenodd" d="M33.3359 12.2722C33.3617 12.298 33.3247 12.2904 33.3999 12.2956C33.6118 12.3106 35.53 12.2932 35.5653 12.2868C35.5885 12.1643 35.5718 11.1302 35.572 10.8436C35.572 10.778 35.5914 10.687 35.5443 10.6611C35.584 10.7904 35.549 12.021 35.5559 12.2784L33.3359 12.2722Z" fill="#5C513C"/>
<path fill-rule="evenodd" clip-rule="evenodd" d="M34.9181 33.2958C34.7933 33.3142 34.7685 33.2344 34.7322 33.1641C34.6219 33.1719 34.627 33.2122 34.6853 33.3048C34.7803 33.4556 35.1427 33.4465 35.1351 33.1691C34.9802 33.1578 35.0673 33.2739 34.9181 33.2958Z" fill="#151710"/>
<path fill-rule="evenodd" clip-rule="evenodd" d="M18.3518 34.7041L18.3522 33.5159L19.2146 33.5131L19.215 34.7045C19.226 34.6829 19.2189 34.7262 19.2307 34.6644L19.2323 34.5476C19.2305 34.3184 19.246 33.6206 19.2237 33.4971L18.3416 33.5057C18.3171 33.6412 18.3339 33.9592 18.3339 34.1141C18.3339 34.2338 18.3125 34.632 18.3518 34.7041Z" fill="#61533D"/>
<path fill-rule="evenodd" clip-rule="evenodd" d="M15.0178 33.6287L15.025 34.7125L15.1581 34.7073C15.175 34.6165 15.175 33.588 15.1572 33.5058C15.0737 33.4874 14.7406 33.4984 14.6106 33.498C14.5853 33.498 14.5333 33.4944 14.5117 33.4964C14.44 33.5028 14.4679 33.489 14.4453 33.5243C14.6002 33.4942 14.972 33.5133 15.1487 33.5137L15.1485 34.6963L15.036 34.6967C15.0211 34.4812 15.047 33.808 15.0347 33.6809L15.0241 33.64C15.0235 33.6335 15.0197 33.6325 15.0178 33.6287Z" fill="#61533D"/>
<path fill-rule="evenodd" clip-rule="evenodd" d="M23.5759 34.5768C23.61 34.6103 23.6012 34.5983 23.7209 34.5989L24.1948 34.6001L24.1933 34.6961L23.4587 34.6945L23.4604 33.5059C23.4506 33.5251 23.4557 33.4866 23.4449 33.547C23.4267 33.6482 23.4477 34.6997 23.4494 34.7135L24.2076 34.7065L24.2031 34.582L23.5759 34.5768Z" fill="#61533D"/>
<path fill-rule="evenodd" clip-rule="evenodd" d="M29.9176 34.5808C29.9736 34.6133 30.0874 34.5983 30.2164 34.5981C30.3199 34.5981 30.4235 34.5965 30.5268 34.5989L30.5276 34.6983L29.79 34.6977C29.7839 34.5233 29.7598 33.5979 29.8083 33.5049C29.7768 33.5217 29.7727 33.4656 29.7749 33.6476C29.7755 33.6975 29.7751 33.7479 29.7751 33.7978C29.7753 33.8978 29.7753 33.9979 29.7753 34.0979C29.7751 34.2669 29.7592 34.5536 29.7812 34.7148L30.5405 34.7073L30.5358 34.5814L29.9176 34.5808Z" fill="#655A43"/>
<path fill-rule="evenodd" clip-rule="evenodd" d="M33.7219 34.6819C33.6318 34.7246 33.1121 34.7008 32.9774 34.697L32.977 33.5148C33.1041 33.5079 33.6208 33.4891 33.7056 33.5314C33.6836 33.4881 33.7205 33.4999 33.6321 33.4951L32.9609 33.5061L32.969 34.7076C33.0699 34.7266 33.244 34.7158 33.3534 34.716C33.4661 34.716 33.706 34.7405 33.7219 34.6819Z" fill="#655A43"/>
<path fill-rule="evenodd" clip-rule="evenodd" d="M22.3734 34.6897C22.2314 34.6967 22.071 34.7025 21.9236 34.6941L21.925 33.5059C21.8851 33.5842 21.9091 34.674 21.9136 34.7077C21.9803 34.7161 22.3526 34.7336 22.3734 34.6897Z" fill="#61533D"/>
<path fill-rule="evenodd" clip-rule="evenodd" d="M5.25317 34.5898L5.24767 33.5056C5.15246 33.4849 4.985 33.4986 4.88056 33.4984C4.81519 33.4984 4.74981 33.4988 4.68463 33.4986C4.66009 33.4984 4.60591 33.4948 4.58549 33.4968C4.50972 33.5038 4.54132 33.4893 4.51953 33.526C4.68149 33.492 5.04959 33.5182 5.23786 33.513L5.23982 34.5487C5.25081 34.6246 5.23943 34.5593 5.25317 34.5898Z" fill="#5D5233"/>
<path fill-rule="evenodd" clip-rule="evenodd" d="M31.457 33.9876L31.4753 33.9321C31.4767 33.9212 31.4755 33.8783 31.4755 33.8645L31.4753 33.5133L32.1791 33.5217C32.1392 33.4822 32.078 33.4966 31.9967 33.497C31.8667 33.498 31.5503 33.4888 31.4598 33.5059L31.457 33.9876Z" fill="#5D5442"/>
<path fill-rule="evenodd" clip-rule="evenodd" d="M12.6484 33.9608C12.6889 33.9289 12.6706 33.5923 12.6698 33.5163L13.3858 33.5214C13.3595 33.4905 13.3956 33.5115 13.3528 33.4991C13.3524 33.4989 13.3089 33.4963 13.3063 33.4961L12.6547 33.5061L12.6484 33.9608Z" fill="#5D5442"/>
<path fill-rule="evenodd" clip-rule="evenodd" d="M16.2539 34.0665C16.3157 34.097 16.429 34.1018 16.506 34.0817L16.5191 33.681C16.5089 33.5998 16.5223 33.6649 16.5013 33.6309L16.5019 34.0697L16.2539 34.0665Z" fill="#776A55"/>
<path fill-rule="evenodd" clip-rule="evenodd" d="M6.57918 25.3966C6.56485 25.4052 6.54953 25.4189 6.54718 25.4145C6.54462 25.41 6.53579 25.4173 6.52931 25.4215L6.48828 25.3838C6.51302 25.4421 6.50438 25.4319 6.5513 25.4509L6.57918 25.3966Z" fill="#E7B888"/>
<path fill-rule="evenodd" clip-rule="evenodd" d="M39.8518 12.7743L39.8241 12.7837C39.8455 12.8067 39.7882 12.8157 39.8502 12.8041C39.906 12.7362 39.8541 12.7772 39.8518 12.7743Z" fill="#8E846F"/>
<path fill-rule="evenodd" clip-rule="evenodd" d="M0.0486667 12.6695L0.0423845 12.6621C0.00351362 12.689 0.0196117 12.6575 0.00390625 12.7124C0.0476851 12.695 0.0280533 12.7076 0.0486667 12.6695Z" fill="#504732"/>
<path fill-rule="evenodd" clip-rule="evenodd" d="M8.54688 34.4481C8.54727 34.4487 8.56101 34.5115 8.59203 34.4346L8.54688 34.4481Z" fill="#675A46"/>
</g>
<defs>
<clipPath id="clip0_380_1514">
<rect width="40" height="35" fill="white"/>
</clipPath>
</defs>
</svg>
