<svg width="26" height="26" viewBox="0 0 26 26" fill="none" xmlns="http://www.w3.org/2000/svg">
<path d="M22.5845 16.0934L17.7999 13.9494L17.7866 13.9433C17.5383 13.8371 17.2673 13.7944 16.9983 13.8193C16.7293 13.8441 16.4707 13.9356 16.2459 14.0855C16.2195 14.103 16.1941 14.122 16.1698 14.1424L13.6977 16.2498C12.1316 15.4891 10.5148 13.8844 9.75407 12.3386L11.8645 9.82901C11.8849 9.80362 11.9041 9.77823 11.9224 9.75081C12.0691 9.52666 12.1581 9.26973 12.1815 9.00288C12.2049 8.73602 12.1619 8.46753 12.0565 8.22128V8.20909L9.90641 3.41636C9.76701 3.09467 9.52731 2.8267 9.22309 2.65244C8.91887 2.47819 8.56645 2.40699 8.21845 2.44948C6.84224 2.63057 5.57902 3.30643 4.66471 4.35083C3.75039 5.39522 3.24752 6.73673 3.25001 8.12479C3.25001 16.1889 9.81095 22.7498 17.875 22.7498C19.2631 22.7523 20.6046 22.2494 21.649 21.3351C22.6934 20.4208 23.3692 19.1576 23.5503 17.7814C23.5929 17.4335 23.5218 17.0811 23.3478 16.7769C23.1737 16.4727 22.906 16.233 22.5845 16.0934ZM17.875 21.1248C14.4283 21.121 11.1239 19.7502 8.68678 17.313C6.24962 14.8759 4.87877 11.5715 4.87501 8.12479C4.87119 7.13303 5.2285 6.17377 5.88021 5.42618C6.53192 4.67859 7.43347 4.19378 8.41649 4.06229C8.41609 4.06635 8.41609 4.07043 8.41649 4.07448L10.5493 8.84792L8.45001 11.3606C8.4287 11.3851 8.40935 11.4112 8.39212 11.4388C8.23928 11.6733 8.14962 11.9433 8.13183 12.2227C8.11403 12.5021 8.16871 12.7813 8.29056 13.0333C9.21071 14.9153 11.1069 16.7972 13.0091 17.7164C13.263 17.8371 13.5439 17.8898 13.8242 17.8696C14.1046 17.8493 14.3749 17.7566 14.6088 17.6006C14.6348 17.583 14.6599 17.564 14.6839 17.5437L17.1529 15.4373L21.9263 17.5752H21.9375C21.8076 18.5596 21.3235 19.463 20.5758 20.1163C19.8281 20.7696 18.8679 21.1281 17.875 21.1248Z" fill="black"/>
</svg>
