<svg width="35" height="35" viewBox="0 0 35 35" fill="none" xmlns="http://www.w3.org/2000/svg">
<path d="M30.2955 21.917L23.8369 19.0226C23.5443 18.8973 23.225 18.8468 22.908 18.876C22.591 18.9051 22.2862 19.0128 22.0213 19.1894C21.9944 19.2067 21.9688 19.2259 21.9447 19.2469L18.5692 22.118C18.5341 22.1371 18.4951 22.1477 18.4553 22.1492C18.4154 22.1506 18.3758 22.1427 18.3395 22.1262C16.1697 21.0789 13.9221 18.8449 12.8707 16.7053C12.8532 16.6695 12.8441 16.6302 12.8441 16.5904C12.8441 16.5506 12.8532 16.5113 12.8707 16.4756L15.7514 13.0576C15.7721 13.0323 15.7912 13.0058 15.8088 12.9783C15.983 12.7124 16.0882 12.4073 16.1149 12.0906C16.1416 11.7738 16.0891 11.4554 15.9619 11.164L13.0881 4.71639C12.9249 4.33578 12.6427 4.01837 12.2837 3.81179C11.9248 3.60521 11.5086 3.52061 11.0975 3.57069C9.31087 3.80557 7.67091 4.68295 6.48407 6.03887C5.29723 7.3948 4.64471 9.13649 4.64845 10.9385C4.64845 21.6435 13.3574 30.3525 24.0625 30.3525C25.8644 30.356 27.6059 29.7034 28.9618 28.5166C30.3177 27.3298 31.1951 25.69 31.4303 23.9035C31.4803 23.4943 31.3968 23.08 31.1924 22.722C30.9879 22.3641 30.6734 22.0818 30.2955 21.917ZM24.0625 28.7119C14.2625 28.7119 6.28908 20.7385 6.28908 10.9385C6.28451 9.53563 6.79084 8.17912 7.71348 7.12238C8.63611 6.06564 9.91193 5.38097 11.3026 5.19628H11.334C11.3891 5.1973 11.4426 5.21496 11.4875 5.24692C11.5324 5.27887 11.5666 5.32365 11.5856 5.37538L14.4703 11.8162C14.4868 11.852 14.4953 11.8909 14.4953 11.9304C14.4953 11.9698 14.4868 12.0087 14.4703 12.0445L11.5842 15.4707C11.5627 15.4951 11.543 15.5212 11.5254 15.5486C11.3448 15.8243 11.2385 16.142 11.2167 16.4709C11.1949 16.7997 11.2584 17.1286 11.401 17.4258C12.6137 19.9086 15.1156 22.3914 17.6258 23.6041C17.9247 23.7459 18.2552 23.8079 18.5851 23.7839C18.9151 23.76 19.2332 23.6509 19.5084 23.4674C19.5344 23.4496 19.5604 23.4305 19.585 23.4099L22.9592 20.5389C22.9925 20.5209 23.0293 20.5105 23.0671 20.5081C23.1048 20.5057 23.1427 20.5116 23.1779 20.5252L29.6379 23.4195C29.6907 23.442 29.735 23.4805 29.7647 23.5296C29.7944 23.5786 29.8079 23.6358 29.8033 23.693C29.6196 25.0842 28.9356 26.361 27.8791 27.2847C26.8226 28.2083 25.4659 28.7157 24.0625 28.7119Z" fill="#EFA35A"/>
</svg>
